<?xml version="1.0" encoding="UTF-8" standalone="no"?>
<!DOCTYPE svg PUBLIC "-//W3C//DTD SVG 1.1//EN" "http://www.w3.org/Graphics/SVG/1.1/DTD/svg11.dtd">
<svg width="100%" height="100%" viewBox="0 0 25 29" version="1.1" xmlns="http://www.w3.org/2000/svg" xmlns:xlink="http://www.w3.org/1999/xlink" xml:space="preserve" xmlns:serif="http://www.serif.com/" style="fill-rule:evenodd;clip-rule:evenodd;stroke-linejoin:round;stroke-miterlimit:2;">
    <path d="M14.234,27.782c-0.33,-0.169 -0.648,-0.397 -1.095,-0.494l-0.002,-0c-0.92,-0.199 -1.694,-0.219 -2.627,-0.352c-1.337,-0.191 -2.618,-0.626 -3.805,-1.255c-2.607,-1.38 -4.507,-3.509 -5.538,-6.231c-0.835,-2.206 -1.144,-4.575 -0.858,-6.898c0.677,-5.516 4.532,-10.243 10.171,-11.455c5.497,-1.18 11.57,1.394 13.618,6.727c0.599,1.559 0.821,3.249 0.631,4.904c-0.374,3.271 -2.256,6.061 -5.216,7.618c-0.285,0.15 -0.579,0.287 -0.88,0.412c-0.75,0.31 -1.176,1.106 -1.018,1.902c0.064,0.32 0.215,0.605 0.427,0.83l0.017,0.019l0.398,0.678l0.217,0.816l-0.018,0.827l-0.252,0.793l-0.446,0.648l-0.613,0.493l-0.746,0.302l-1.132,0.091l-0.504,-0.092l-0.729,-0.283Z" style="fill:#fff;"/>
    <path id="l" d="M22.884,8.29c0.524,1.364 0.72,2.842 0.554,4.291c-0.325,2.84 -1.96,5.262 -4.53,6.614c-2.495,1.312 -5.785,1.592 -8.375,0.379c-2.32,-1.086 -3.772,-3.503 -3.648,-6.019c0.063,-1.269 0.521,-2.52 1.294,-3.543c0.206,-0.273 0.637,-0.723 1.057,-1.039c0.215,-0.162 0.424,-0.293 0.596,-0.333c0.073,0.23 0.25,0.77 0.4,1.153c0.088,0.223 0.143,0.332 0.206,0.537c-0.578,0.3 -0.769,0.492 -0.671,0.445c0.493,-0.232 1.531,-0.456 2.316,-0.453c1.067,0.002 1.296,0.12 1.917,0.193c0.037,-0.064 0.116,-0.184 0.145,-0.229c0.028,-0.045 0.058,-0.093 0.093,-0.143c0.327,-0.481 0.76,-0.941 1.288,-1.213c0.567,-0.292 0.946,-0.399 1.103,-0.435c0.263,0.413 0.613,1.567 0.894,2.206c0.216,0.49 0.608,1.378 1.146,1.968c0.385,0.423 0.853,0.58 1.372,0.493c0.162,-0.027 0.412,-0.177 0.503,-0.817c0.051,-0.359 0.022,-0.974 -0.01,-1.335c-0.064,-0.705 -0.247,-1.4 -0.538,-2.048c-0.532,-1.178 -1.423,-2.182 -2.544,-2.856c-2.05,-1.235 -4.691,-1.437 -6.954,-0.697c-5.212,1.704 -7.2,7.78 -5.364,12.57c0.917,2.39 2.971,4.234 5.555,4.757c0.968,0.196 1.961,0.145 2.939,0.26c1.214,0.143 2.184,0.148 3.089,0.961c0.502,0.452 0.78,0.979 0.669,1.691c-0.089,0.567 -0.524,1.038 -1.096,1.176c-0.608,0.147 -1.027,0.015 -1.429,-0.182c-0.438,-0.214 -0.859,-0.498 -1.449,-0.625c-0.952,-0.205 -1.753,-0.23 -2.719,-0.368c-1.188,-0.17 -2.325,-0.558 -3.38,-1.117c-2.32,-1.228 -4.013,-3.12 -4.93,-5.542c-0.761,-2.009 -1.044,-4.165 -0.784,-6.279c0.611,-4.974 4.07,-9.251 9.154,-10.343c4.885,-1.049 10.311,1.182 12.131,5.922Z"/>
</svg>
