<svg viewBox="0 0 25 29" version="1.1"
    xmlns="http://www.w3.org/2000/svg"
    xmlns:xlink="http://www.w3.org/1999/xlink" xml:space="preserve" style="fill-rule:evenodd;clip-rule:evenodd;stroke-linejoin:round;stroke-miterlimit:2;" fill="currentColor">
    <style>
    #l {
        fill: black;
    }

    @media (prefers-color-scheme: dark) {
        #l {
            fill: white;
        }
    }
    </style>
    <path id="l" d="M23.84,7.388c0.584,1.521 0.802,3.169 0.617,4.784c-0.362,3.167 -2.185,5.868 -5.051,7.376c-2.782,1.463 -6.451,1.775 -9.339,0.422c-2.587,-1.211 -4.206,-3.906 -4.068,-6.711c0.07,-1.416 0.581,-2.811 1.443,-3.951c0.23,-0.305 0.71,-0.806 1.179,-1.159c0.24,-0.181 0.473,-0.327 0.664,-0.371c0.082,0.256 0.279,0.859 0.447,1.285c0.098,0.249 0.159,0.371 0.229,0.599c-0.644,0.335 -0.857,0.549 -0.748,0.497c0.55,-0.259 1.707,-0.509 2.583,-0.506c1.189,0.003 1.445,0.134 2.137,0.216c0.041,-0.072 0.13,-0.205 0.162,-0.256c0.031,-0.05 0.064,-0.103 0.103,-0.159c0.365,-0.537 0.848,-1.05 1.437,-1.353c0.632,-0.325 1.055,-0.445 1.23,-0.485c0.293,0.461 0.683,1.747 0.997,2.46c0.241,0.547 0.678,1.537 1.277,2.195c0.43,0.471 0.952,0.646 1.53,0.549c0.181,-0.03 0.46,-0.197 0.561,-0.911c0.057,-0.4 0.025,-1.086 -0.011,-1.488c-0.071,-0.787 -0.275,-1.561 -0.6,-2.284c-0.593,-1.314 -1.587,-2.433 -2.836,-3.185c-2.286,-1.377 -5.231,-1.602 -7.755,-0.777c-5.812,1.9 -8.029,8.675 -5.981,14.017c1.022,2.665 3.313,4.721 6.194,5.304c1.08,0.219 2.187,0.162 3.277,0.29c1.354,0.16 2.436,0.165 3.445,1.072c0.56,0.504 0.87,1.091 0.746,1.885c-0.099,0.633 -0.585,1.158 -1.222,1.312c-0.678,0.164 -1.145,0.016 -1.594,-0.203c-0.488,-0.239 -0.958,-0.555 -1.615,-0.697c-1.062,-0.229 -1.955,-0.257 -3.032,-0.411c-1.325,-0.189 -2.593,-0.622 -3.769,-1.245c-2.587,-1.369 -4.475,-3.479 -5.498,-6.18c-0.848,-2.24 -1.164,-4.644 -0.874,-7.002c0.681,-5.546 4.538,-10.315 10.207,-11.533c5.448,-1.17 11.498,1.318 13.528,6.604Z" />
</svg>