<svg width="100%" height="100%" viewBox="0 0 25 26" version="1.1" xmlns="http://www.w3.org/2000/svg" xmlns:xlink="http://www.w3.org/1999/xlink" xml:space="preserve" xmlns:serif="http://www.serif.com/" style="fill-rule:evenodd;clip-rule:evenodd;stroke-linejoin:round;stroke-miterlimit:2;">
    <rect id="Artboard1" x="0" y="0" width="25" height="25.172" style="fill:none;"/>
    <clipPath id="_clip1">
        <rect x="0" y="0" width="25" height="25.172"/>
    </clipPath>
    <g clip-path="url(#_clip1)">
        <path d="M25,6.405l0,12.5c0,3.449 -2.801,6.25 -6.25,6.25l-12.5,-0c-3.449,-0 -6.25,-2.801 -6.25,-6.25l0,-12.5c0,-3.45 2.801,-6.25 6.25,-6.25l12.5,-0c3.449,-0 6.25,2.8 6.25,6.25Z" style="fill:#fff;"/>
        <path id="l" d="M21.605,7.268c0.483,1.259 0.664,2.623 0.51,3.96c-0.299,2.622 -1.808,4.858 -4.181,6.106c-2.303,1.211 -5.34,1.469 -7.731,0.349c-2.141,-1.002 -3.482,-3.233 -3.367,-5.555c0.058,-1.172 0.481,-2.327 1.194,-3.271c0.191,-0.252 0.588,-0.667 0.976,-0.959c0.199,-0.15 0.392,-0.271 0.55,-0.307c0.068,0.211 0.231,0.711 0.37,1.063c0.081,0.206 0.131,0.307 0.189,0.496c-0.533,0.277 -0.709,0.455 -0.619,0.412c0.455,-0.215 1.413,-0.422 2.138,-0.419c0.985,0.002 1.197,0.111 1.769,0.178c0.034,-0.059 0.108,-0.169 0.135,-0.211c0.025,-0.042 0.053,-0.086 0.085,-0.132c0.302,-0.445 0.702,-0.869 1.189,-1.12c0.524,-0.269 0.874,-0.368 1.019,-0.402c0.242,0.382 0.565,1.447 0.825,2.037c0.2,0.453 0.561,1.272 1.057,1.817c0.356,0.39 0.788,0.535 1.267,0.454c0.15,-0.024 0.381,-0.163 0.464,-0.754c0.047,-0.331 0.021,-0.899 -0.009,-1.232c-0.059,-0.651 -0.228,-1.292 -0.497,-1.89c-0.491,-1.088 -1.313,-2.014 -2.347,-2.637c-1.893,-1.14 -4.331,-1.326 -6.42,-0.643c-4.811,1.573 -6.243,6.491 -4.548,10.913c0.846,2.206 2.743,3.908 5.128,4.391c0.894,0.181 1.81,0.134 2.713,0.24c1.121,0.132 2.016,0.136 2.852,0.887c0.463,0.417 0.72,0.903 0.617,1.561c-0.082,0.524 -0.484,0.958 -1.011,1.086c-0.562,0.136 -0.948,0.013 -1.32,-0.168c-0.404,-0.198 -0.793,-0.46 -1.337,-0.577c-0.879,-0.19 -1.618,-0.213 -2.51,-0.34c-1.097,-0.157 -2.146,-0.515 -3.12,-1.031c-2.142,-1.133 -3.731,-3.115 -4.554,-5.228c-0.721,-1.847 -1.01,-3.309 -0.915,-5.135c0.24,-4.62 3.547,-8.398 8.24,-9.406c4.51,-0.969 9.518,1.091 11.199,5.467Z"/>
    </g>
</svg>
