<svg xmlns="http://www.w3.org/2000/svg" width="16" height="16" viewBox="0 0 24 24">
  <path fill="currentColor"
    d="M5.161 2H16.34c.527 0 .982 0 1.356.03c.395.033.789.104 1.167.297a3 3 0 0 1 1.311 1.311c.193.378.264.772.296 1.167c.031.375.031.83.031 1.356V12.5a1 1 0 1 1-2 0V6.2c0-.577 0-.949-.024-1.232c-.022-.272-.06-.373-.085-.422a1 1 0 0 0-.437-.437c-.05-.025-.15-.063-.422-.085C17.25 4 16.877 4 16.3 4H5.2c-.577 0-.949 0-1.232.024c-.272.022-.373.06-.422.085a1 1 0 0 0-.437.437c-.025.05-.063.15-.085.422C3 5.25 3 5.623 3 6.2V21a1 1 0 1 1-2 0V6.161c0-.527 0-.981.03-1.356c.033-.395.104-.789.297-1.167a3 3 0 0 1 1.311-1.311c.378-.193.772-.264 1.167-.296C4.18 2 4.635 2 5.161 2" />
  <path fill="currentColor"
    d="M6.5 6.5a1 1 0 0 0 0 2h9a1 1 0 1 0 0-2zm5.53 3.5c-.122 0-.255 0-.37.01a1.3 1.3 0 0 0-.478.126a1.25 1.25 0 0 0-.546.547c-.09.176-.116.348-.127.478c-.01.114-.009.247-.009.369v1.19c0 .122 0 .255.01.37c.01.13.036.3.126.478c.12.235.311.426.547.546c.176.09.348.116.478.127c.114.01.247.009.369.009h1.94c.122 0 .255 0 .37-.01c.13-.01.3-.036.478-.126a1.25 1.25 0 0 0 .546-.546c.09-.177.116-.349.127-.479c.01-.114.009-.246.009-.369v-1.19c0-.122 0-.255-.01-.37a1.3 1.3 0 0 0-.126-.478a1.25 1.25 0 0 0-.546-.546a1.3 1.3 0 0 0-.479-.127C14.225 10 14.093 10 13.97 10zM6.5 11a.75.75 0 0 1 .75-.75h1.5a.75.75 0 0 1 0 1.5h-1.5A.75.75 0 0 1 6.5 11m0 2.25a.75.75 0 0 1 .75-.75h1.5a.75.75 0 0 1 0 1.5h-1.5a.75.75 0 0 1-.75-.75m0 2.75a.75.75 0 0 1 .75-.75h7.5a.75.75 0 0 1 0 1.5h-7.5A.75.75 0 0 1 6.5 16m0 2.5a.75.75 0 0 1 .75-.75h4.8a.75.75 0 0 1 0 1.5h-4.8a.75.75 0 0 1-.75-.75M20.25 16a.75.75 0 0 0-1.5 0v1.75H17a.75.75 0 0 0 0 1.5h1.75V21a.75.75 0 0 0 1.5 0v-1.75H22a.75.75 0 0 0 0-1.5h-1.75z" />
</svg> 