<?xml version="1.0" encoding="UTF-8" standalone="no"?>
<!DOCTYPE svg PUBLIC "-//W3C//DTD SVG 1.1//EN" "http://www.w3.org/Graphics/SVG/1.1/DTD/svg11.dtd">
<svg width="100%" height="100%" viewBox="0 0 376 56" version="1.1" xmlns="http://www.w3.org/2000/svg" xmlns:xlink="http://www.w3.org/1999/xlink" xml:space="preserve" xmlns:serif="http://www.serif.com/" style="fill-rule:evenodd;clip-rule:evenodd;stroke-linejoin:round;stroke-miterlimit:2;">
    <rect id="Artboard1" x="0" y="0" width="375.717" height="55.736" style="fill:none;"/>
    <clipPath id="_clip1">
        <rect x="0" y="0" width="375.717" height="55.736"/>
    </clipPath>
    <g clip-path="url(#_clip1)">
        <g id="Logo">
            <rect x="0" y="0" width="236.142" height="56.638" style="fill:none;"/>
            <g>
                <g id="Logo--Big-" serif:id="Logo-(Big)">
                    <g id="Logo-Icon">
                        <path id="Fill-1" d="M47.68,14.777c1.168,3.041 1.604,6.337 1.235,9.568c-0.725,6.333 -4.371,11.735 -10.104,14.75c-5.564,2.927 -12.9,3.55 -18.676,0.845c-5.174,-2.423 -8.413,-7.812 -8.137,-13.421c0.141,-2.833 1.161,-5.623 2.885,-7.903c0.461,-0.611 1.422,-1.613 2.358,-2.318c0.48,-0.361 0.947,-0.653 1.33,-0.742c0.163,0.512 0.557,1.718 0.893,2.569c0.197,0.499 0.317,0.744 0.458,1.198c-1.287,0.67 -1.714,1.099 -1.495,0.995c1.098,-0.519 3.412,-1.018 5.164,-1.013c2.379,0.008 2.891,0.269 4.275,0.432c0.081,-0.142 0.259,-0.408 0.323,-0.511c0.063,-0.1 0.13,-0.205 0.206,-0.317c0.73,-1.074 1.697,-2.101 2.875,-2.708c1.263,-0.649 2.111,-0.889 2.46,-0.97c0.586,0.922 1.366,3.494 1.994,4.92c0.482,1.094 1.355,3.076 2.554,4.39c0.86,0.943 1.904,1.294 3.06,1.099c0.362,-0.061 0.92,-0.394 1.123,-1.823c0.113,-0.799 0.049,-2.17 -0.023,-2.974c-0.142,-1.575 -0.549,-3.123 -1.201,-4.569c-1.184,-2.629 -3.172,-4.866 -5.672,-6.371c-4.571,-2.753 -10.462,-3.202 -15.509,-1.552c-11.625,3.799 -16.058,17.35 -11.962,28.034c2.043,5.328 6.625,9.44 12.388,10.608c2.161,0.438 4.374,0.323 6.555,0.58c2.707,0.319 4.871,0.329 6.888,2.143c1.12,1.007 1.741,2.183 1.493,3.77c-0.198,1.266 -1.171,2.316 -2.445,2.624c-1.355,0.327 -2.289,0.032 -3.187,-0.406c-0.977,-0.478 -1.916,-1.11 -3.23,-1.394c-2.124,-0.459 -3.909,-0.514 -6.065,-0.822c-2.65,-0.379 -5.185,-1.243 -7.538,-2.489c-5.174,-2.74 -8.949,-6.959 -10.994,-12.36c-1.697,-4.481 -2.328,-9.288 -1.749,-14.004c1.363,-11.094 9.076,-20.631 20.415,-23.066c10.896,-2.34 22.994,2.635 27.055,13.208Z" style="fill:#fff;"/>
                    </g>
                    <g id="epicat">
                        <g id="Logo1" serif:id="Logo">
                            <g id="epicat1" serif:id="epicat">
                                <path id="epic" d="M84.959,45.981c2.394,-0 4.284,-0.378 5.827,-0.977c1.512,-0.598 2.678,-1.386 3.591,-2.236c0.788,-0.63 1.166,-1.449 1.292,-2.237c0.094,-0.787 -0.126,-1.606 -0.536,-2.268c-0.189,-0.315 -0.441,-0.598 -0.724,-0.85c-0.536,-0.536 -1.418,-0.882 -2.552,-0.725c-0.567,0.095 -1.165,0.347 -1.795,0.788c-1.229,1.134 -2.93,1.701 -5.103,1.701c-1.733,-0 -3.308,-0.504 -4.599,-1.418c-1.292,-0.882 -2.331,-2.142 -2.867,-3.748l19.215,-0c2.016,-0 3.371,-1.323 3.371,-3.245c-0.095,-4.126 -1.764,-7.843 -4.505,-10.521c-2.772,-2.646 -6.489,-4.315 -10.615,-4.315c-4.158,-0 -7.907,1.669 -10.647,4.378c-2.741,2.709 -4.442,6.489 -4.442,10.647c0,4.158 1.701,7.875 4.442,10.616c2.74,2.74 6.489,4.41 10.647,4.41Zm8.095,-17.64l-15.781,-0c0.22,-0.851 0.598,-1.607 1.071,-2.268c0.976,-1.386 2.362,-2.363 4.063,-2.898c0.851,-0.284 1.733,-0.41 2.709,-0.41c1.922,-0 3.654,0.504 5.04,1.481c1.386,0.976 2.426,2.362 2.898,4.095Zm14.459,27.909c1.008,-0 1.827,-0.41 2.425,-1.04c0.599,-0.63 0.914,-1.512 0.914,-2.52l0,-9.166c2.394,1.543 5.166,2.457 8.19,2.457c4.158,-0 7.906,-1.67 10.584,-4.41c2.74,-2.741 4.41,-6.489 4.41,-10.616c0,-4.158 -1.701,-7.875 -4.379,-10.615c-2.74,-2.741 -6.457,-4.41 -10.615,-4.41c-4.127,-0 -7.844,1.669 -10.584,4.41c-2.741,2.74 -4.442,6.457 -4.442,10.615l0,21.735c0,1.008 0.41,1.89 1.04,2.52c0.63,0.63 1.48,1.04 2.457,1.04Zm11.529,-17.105c-2.268,-0 -4.284,-0.913 -5.765,-2.425c-1.512,-1.481 -2.425,-3.528 -2.425,-5.765c0,-2.268 0.913,-4.315 2.425,-5.796c1.481,-1.48 3.528,-2.394 5.765,-2.394c2.268,-0 4.315,0.914 5.796,2.394c1.48,1.481 2.362,3.528 2.362,5.796c0,1.103 -0.22,2.174 -0.63,3.15c-0.85,2.016 -2.331,3.528 -4.315,4.379c-1.008,0.441 -2.079,0.661 -3.213,0.661Zm23.499,-26.082c1.008,-0 1.984,-0.441 2.677,-1.102c0.693,-0.662 1.103,-1.607 1.103,-2.615c0,-1.039 -0.41,-2.016 -1.103,-2.677c-0.693,-0.662 -1.669,-1.103 -2.677,-1.103c-1.008,-0 -1.985,0.441 -2.646,1.103c-0.662,0.661 -1.103,1.638 -1.103,2.677c0,0.504 0.095,0.977 0.315,1.418c0.378,0.913 1.071,1.606 1.985,1.984c0.472,0.221 0.945,0.315 1.449,0.315Zm0.031,32.54c0.914,-0 1.796,-0.378 2.426,-1.008c0.598,-0.599 0.976,-1.418 0.976,-2.394l0,-22.491c0,-0.914 -0.346,-1.764 -0.945,-2.394c-0.63,-0.63 -1.48,-1.008 -2.394,-1.008c-0.976,-0 -1.827,0.378 -2.457,1.008c-0.63,0.63 -1.039,1.48 -1.039,2.394l0,22.491c0,0.976 0.378,1.795 1.008,2.394c0.63,0.63 1.512,1.008 2.425,1.008Zm23.72,0.378c3.937,-0 7.686,-1.418 10.3,-4.064c0.788,-0.787 1.197,-1.795 1.229,-2.74c0,-0.945 -0.347,-1.827 -1.071,-2.457c-1.134,-0.977 -2.142,-1.134 -3.024,-0.914c-0.914,0.221 -1.764,0.819 -2.426,1.355c-1.858,1.48 -3.622,2.047 -5.638,1.953c-2.174,-0.032 -4.127,-1.103 -5.513,-2.646c-1.417,-1.512 -2.268,-3.497 -2.268,-5.481c0,-0.032 0,-0.032 -0.031,-0.032l0.031,-0.031c0,-2.016 0.882,-4.001 2.3,-5.544c1.386,-1.512 3.339,-2.52 5.481,-2.615c2.016,-0.094 3.78,0.41 5.638,1.89c0.662,0.536 1.512,1.134 2.426,1.355c0.441,0.126 0.913,0.126 1.417,-0c1.008,-0.221 2.048,-1.166 2.426,-2.048c0.378,-0.85 0.346,-1.827 -0.063,-2.74c-0.221,-0.473 -0.504,-0.914 -0.914,-1.323c-2.614,-2.646 -6.363,-3.969 -10.3,-3.969c-4.19,-0 -8.001,1.638 -10.773,4.347c-2.772,2.709 -4.473,6.52 -4.473,10.71l0.031,-0l-0.031,0.063c0,4.189 1.701,7.938 4.473,10.615c2.772,2.678 6.583,4.316 10.773,4.316Z" style="fill:#fff;fill-rule:nonzero;"/>
                                <path id="at" d="M195.933,45.981c3.056,-0 5.891,-1.134 8.285,-2.93c0.378,1.481 1.575,2.552 3.213,2.552c0.976,-0 1.858,-0.41 2.488,-1.04c0.63,-0.63 1.008,-1.48 1.008,-2.457l0,-11.151c0,-4.158 -1.669,-7.875 -4.378,-10.615c-2.709,-2.741 -6.458,-4.41 -10.616,-4.41c-4.126,-0 -7.843,1.669 -10.584,4.41c-2.74,2.74 -4.442,6.457 -4.442,10.615c0,4.127 1.702,7.875 4.442,10.616c2.741,2.74 6.458,4.41 10.584,4.41Zm0,-6.836c-2.268,-0 -4.284,-0.913 -5.764,-2.425c-1.512,-1.481 -2.426,-3.528 -2.426,-5.765c0,-2.268 0.914,-4.315 2.426,-5.796c1.48,-1.48 3.528,-2.394 5.764,-2.394c2.268,-0 4.316,0.914 5.796,2.394c1.481,1.481 2.363,3.528 2.363,5.796c0,2.237 -0.882,4.284 -2.363,5.765c-1.48,1.512 -3.528,2.425 -5.796,2.425Zm36.099,6.836c3.78,-0 7.119,-1.26 9.639,-3.686c0.756,-0.724 1.197,-1.669 1.26,-2.677c0.063,-0.977 -0.252,-1.89 -1.008,-2.615c-1.008,-0.913 -2.205,-1.008 -3.244,-0.63c-0.599,0.221 -0.977,0.536 -1.449,0.945c-1.481,1.292 -3.182,1.827 -5.198,1.827c-2.268,-0 -4.315,-0.913 -5.796,-2.362c-1.48,-1.449 -2.394,-3.434 -2.394,-5.67l0,-7.97l10.962,-0c0.977,-0 1.827,-0.378 2.457,-1.008c0.63,-0.598 1.008,-1.449 1.008,-2.362c0,-0.473 -0.094,-0.914 -0.283,-1.323c-0.378,-0.851 -1.008,-1.481 -1.859,-1.859c-0.409,-0.189 -0.85,-0.283 -1.323,-0.283l-10.962,-0l0,-5.481c0,-0.977 -0.378,-1.827 -0.976,-2.457c-0.63,-0.63 -1.481,-1.008 -2.394,-1.008c-0.977,-0 -1.827,0.378 -2.457,1.008c-0.63,0.63 -1.008,1.48 -1.008,2.457l0,20.223c0,4.158 1.669,7.906 4.41,10.584c2.74,2.677 6.457,4.347 10.615,4.347Z" style="fill:#fff;fill-rule:nonzero;"/>
                            </g>
                        </g>
                    </g>
                </g>
            </g>
        </g>
        <path d="M263.145,45.601c-3.813,0 -6.977,-1.369 -9.492,-4.107c-2.515,-2.738 -3.772,-6.196 -3.772,-10.373c-0,-4.219 1.247,-7.677 3.742,-10.374c2.494,-2.698 5.668,-4.047 9.522,-4.047c3.326,0 6.003,1.136 8.031,3.408l0,-13.082c0,-0.973 0.487,-1.46 1.46,-1.46l4.685,-0c0.974,-0 1.461,0.487 1.461,1.46l-0,36.628c-0,0.974 -0.487,1.461 -1.461,1.461l-4.685,-0c-0.973,-0 -1.46,-0.487 -1.46,-1.461l0,-1.46c-2.028,2.272 -4.705,3.407 -8.031,3.407Zm-3.955,-9.248c1.298,1.379 2.981,2.069 5.05,2.069c2.069,-0 3.742,-0.69 5.02,-2.069c1.277,-1.379 1.916,-3.123 1.916,-5.232c0,-2.11 -0.639,-3.854 -1.916,-5.233c-1.278,-1.379 -2.951,-2.069 -5.02,-2.069c-2.069,0 -3.752,0.69 -5.05,2.069c-1.298,1.379 -1.947,3.123 -1.947,5.233c-0,2.109 0.649,3.853 1.947,5.232Z" style="fill:#fff;fill-opacity:0.33;fill-rule:nonzero;"/>
        <path d="M307.257,41.586c-2.677,2.758 -6.125,4.137 -10.344,4.137c-4.218,0 -7.676,-1.389 -10.374,-4.168c-2.697,-2.778 -4.046,-6.257 -4.046,-10.434c0,-4.219 1.349,-7.697 4.046,-10.435c2.698,-2.738 6.156,-4.107 10.374,-4.107c4.259,-0 7.727,1.359 10.405,4.076c2.677,2.718 4.015,6.206 4.015,10.466c0,4.218 -1.359,7.706 -4.076,10.465Zm-15.394,-5.233c1.298,1.379 2.982,2.069 5.05,2.069c2.069,-0 3.742,-0.69 5.02,-2.069c1.278,-1.379 1.916,-3.123 1.916,-5.232c0,-2.11 -0.638,-3.854 -1.916,-5.233c-1.278,-1.379 -2.951,-2.069 -5.02,-2.069c-2.068,0 -3.742,0.69 -5.019,2.069c-1.278,1.379 -1.917,3.123 -1.917,5.233c0,2.109 0.629,3.853 1.886,5.232Z" style="fill:#fff;fill-opacity:0.33;fill-rule:nonzero;"/>
        <path d="M328.309,45.662c-4.219,0 -7.656,-1.359 -10.313,-4.076c-2.657,-2.718 -3.986,-6.206 -3.986,-10.465c0,-4.26 1.329,-7.738 3.986,-10.435c2.657,-2.698 6.094,-4.046 10.313,-4.046c4.381,-0 7.869,1.5 10.465,4.502c0.609,0.73 0.527,1.42 -0.243,2.069l-3.164,2.434c-0.69,0.486 -1.379,0.446 -2.069,-0.122c-1.298,-1.136 -2.9,-1.704 -4.807,-1.704c-2.068,0 -3.762,0.69 -5.08,2.069c-1.318,1.379 -1.978,3.123 -1.978,5.233c0,2.109 0.66,3.853 1.978,5.232c1.318,1.379 3.012,2.069 5.08,2.069c1.907,-0 3.509,-0.527 4.807,-1.582c0.69,-0.568 1.379,-0.609 2.069,-0.122l3.164,2.373c0.77,0.609 0.892,1.237 0.365,1.886c-2.677,3.124 -6.206,4.685 -10.587,4.685Z" style="fill:#fff;fill-opacity:0.33;fill-rule:nonzero;"/>
        <path d="M354.411,45.967c-2.839,-0 -5.283,-0.528 -7.332,-1.582c-2.048,-1.055 -3.579,-2.373 -4.593,-3.955c-0.487,-0.771 -0.305,-1.44 0.547,-2.008l2.86,-1.886c0.689,-0.447 1.338,-0.325 1.947,0.365c0.73,0.811 1.703,1.511 2.92,2.099c1.217,0.588 2.475,0.882 3.773,0.882c2.677,0 4.015,-0.872 4.015,-2.616c0,-0.446 -0.111,-0.832 -0.334,-1.156c-0.223,-0.325 -0.588,-0.619 -1.095,-0.882c-0.507,-0.264 -0.943,-0.467 -1.309,-0.609c-0.365,-0.142 -0.912,-0.314 -1.642,-0.517c-0.73,-0.203 -1.197,-0.345 -1.4,-0.426c-0.04,-0 -0.385,-0.101 -1.034,-0.304c-0.649,-0.203 -1.126,-0.365 -1.43,-0.487c-0.304,-0.122 -0.811,-0.335 -1.521,-0.639c-0.71,-0.304 -1.278,-0.588 -1.704,-0.852c-0.426,-0.263 -0.922,-0.628 -1.49,-1.095c-0.568,-0.466 -1.004,-0.943 -1.309,-1.43c-0.304,-0.486 -0.578,-1.064 -0.821,-1.734c-0.243,-0.669 -0.365,-1.369 -0.365,-2.099c0,-2.839 1.065,-4.969 3.194,-6.389c2.13,-1.419 4.817,-2.129 8.062,-2.129c2.515,-0 4.705,0.436 6.571,1.308c1.866,0.872 3.286,1.998 4.259,3.377c0.568,0.811 0.406,1.48 -0.486,2.008l-2.556,1.643c-0.689,0.446 -1.379,0.365 -2.068,-0.244c-1.785,-1.541 -3.773,-2.312 -5.963,-2.312c-2.393,0 -3.59,0.791 -3.59,2.373c0,0.446 0.112,0.832 0.335,1.156c0.223,0.325 0.588,0.619 1.095,0.882c0.507,0.264 0.923,0.467 1.247,0.609c0.325,0.142 0.852,0.314 1.582,0.517c0.73,0.203 1.197,0.345 1.4,0.426c0.04,-0 0.304,0.081 0.79,0.243c0.487,0.162 0.852,0.284 1.096,0.365c0.243,0.081 0.639,0.234 1.186,0.457c0.548,0.223 0.994,0.415 1.339,0.578c0.345,0.162 0.781,0.395 1.308,0.699c0.527,0.305 0.953,0.609 1.278,0.913c0.324,0.304 0.679,0.659 1.064,1.065c0.386,0.405 0.69,0.821 0.913,1.247c0.223,0.426 0.416,0.913 0.578,1.46c0.162,0.548 0.243,1.106 0.243,1.674c0,2.92 -1.014,5.151 -3.042,6.692c-2.028,1.542 -4.867,2.313 -8.518,2.313Z" style="fill:#fff;fill-opacity:0.33;fill-rule:nonzero;"/>
    </g>
</svg>
